# xmcd
#
# Track frame offsets:
#	150
#	18681
#	35233
#	50085
#	66599
#	87222
#	110433
#	131128
#	147320
#	163303
#
# Disc length: 2371 seconds
#
# Revision: 1
# Processed by: cddbd v1.5.2PL0 Copyright (c) Steve Scherf et al.
# Submitted via: audiograbber 1.83.01
#
DISCID=9f09410a
DTITLE=Lauren O'Connell - sitting in chairs
DYEAR=2007
DGENRE=Acoustic
TTITLE0=sitting in chairs
TTITLE1=levers and gears
TTITLE2=good intentions
TTITLE3=my equations
TTITLE4=i'm all talk
TTITLE5=chimney smoke
TTITLE6=just be
TTITLE7=all the perching crows
TTITLE8=somewhere in between
TTITLE9=there will be
EXTD="thanks to everybody ever.  but especially my family, instructors, boulder
EXTD=coffee patrons, and friends like julia nines and mike wagner."
EXTT0=
EXTT1=
EXTT2=
EXTT3=
EXTT4=
EXTT5=
EXTT6=
EXTT7=
EXTT8=
EXTT9=
PLAYORDER=
